<?xml version="1.0" encoding="UTF-8"?>
<svg width="24px" height="23px" viewBox="0 0 24 23" version="1.1" xmlns="http://www.w3.org/2000/svg" xmlns:xlink="http://www.w3.org/1999/xlink">
    <!-- Generator: Sketch 50.2 (55047) - http://www.bohemiancoding.com/sketch -->
    <title>Group</title>
    <desc>Created with Sketch.</desc>
    <defs>
        <linearGradient x1="50%" y1="0%" x2="50%" y2="100%" id="linearGradient-1">
            <stop stop-color="#F0CC84" offset="0%"></stop>
            <stop stop-color="#E6AC5C" offset="100%"></stop>
        </linearGradient>
        <linearGradient x1="50%" y1="0%" x2="50%" y2="100%" id="linearGradient-2">
            <stop stop-color="#CC815C" offset="1.07929913%"></stop>
            <stop stop-color="#331608" offset="100%"></stop>
        </linearGradient>
    </defs>
    <g id="Page-1" stroke="none" stroke-width="1" fill="none" fill-rule="evenodd">
        <g id="iconCookies">
            <g id="Group">
                <g id="iconCookie">
                    <path d="M9.48606395,0.810643057 C8.84227739,0.621610267 8.15772261,0.621610267 7.51393605,0.810643057 L5.17234956,1.49819489 C4.528563,1.68722768 3.95267887,2.05732593 3.51329,2.56440773 L1.91514067,4.40877037 C1.47575179,4.91585216 1.19137746,5.53854509 1.09588913,6.202681 L0.748578092,8.61828235 C0.653089764,9.28241826 0.750512066,9.96000526 1.02924116,10.5703368 L2.0430372,12.7902405 C2.32176629,13.4005721 2.77005434,13.9179241 3.33450632,14.2806753 L5.38753638,15.6000776 C5.95198837,15.9628289 6.60881387,16.1556903 7.27977924,16.1556903 L9.72022076,16.1556903 C10.3911861,16.1556903 11.0480116,15.9628289 11.6124636,15.6000776 L13.6654937,14.2806753 C14.2299457,13.9179241 14.6782337,13.4005721 14.9569628,12.7902405 L15.9707588,10.5703368 C16.2494879,9.96000526 16.3469102,9.28241826 16.2514219,8.61828235 L15.9041109,6.202681 C15.8086225,5.53854509 15.5242482,4.91585216 15.0848593,4.40877037 L13.48671,2.56440773 C13.0473211,2.05732593 12.471437,1.68722768 11.8276504,1.49819489 L9.48606395,0.810643057 Z" id="Polygon-2" stroke="#9C6D3E" fill="#BF8F4D"></path>
                    <circle id="Oval" stroke="#9C6D3E" fill="#BF8F4D" cx="2.36111111" cy="17.4722222" r="1"></circle>
                    <circle id="Oval" stroke="#9C6D3E" fill="#BF8F4D" cx="6.13888889" cy="20.3611111" r="1"></circle>
                    <path d="M9.48606395,0.810643057 C8.84227739,0.621610267 8.15772261,0.621610267 7.51393605,0.810643057 L5.55530347,1.38574947 C4.91151691,1.57478226 4.33563278,1.94488052 3.89624391,2.45196231 L2.55946333,3.99468934 C2.12007446,4.50177113 1.83570012,5.12446406 1.7402118,5.78859997 L1.44970161,7.80914267 C1.35421329,8.47327858 1.45163559,9.15086558 1.73036468,9.76119715 L2.57835982,11.6180475 C2.85708891,12.2283791 3.30537695,12.7457311 3.86982894,13.1084823 L5.58709694,14.2121035 C6.15154893,14.5748547 6.80837443,14.7677161 7.4793398,14.7677161 L9.5206602,14.7677161 C10.1916256,14.7677161 10.8484511,14.5748547 11.4129031,14.2121035 L13.1301711,13.1084823 C13.694623,12.7457311 14.1429111,12.2283791 14.4216402,11.6180475 L15.2696353,9.76119715 C15.5483644,9.15086558 15.6457867,8.47327858 15.5502984,7.80914267 L15.2597882,5.78859997 C15.1642999,5.12446406 14.8799255,4.50177113 14.4405367,3.99468934 L13.1037561,2.45196231 C12.6643672,1.94488052 12.0884831,1.57478226 11.4446965,1.38574947 L9.48606395,0.810643057 Z" id="Polygon-2" stroke="#F2CE85" fill="url(#linearGradient-1)"></path>
                    <path d="M4.89805929,3.62890693 C4.72281559,3.50158493 4.48551774,3.50158493 4.31027404,3.62890693 L3.46484945,4.24314385 C3.28960574,4.37046586 3.21627668,4.59614952 3.28321382,4.80216085 L3.60613728,5.79601706 C3.67307441,6.00202839 3.8650524,6.14150857 4.08166553,6.14150857 L5.1266678,6.14150857 C5.34328093,6.14150857 5.53525892,6.00202839 5.60219606,5.79601706 L5.92511952,4.80216085 C5.99205666,4.59614952 5.91872759,4.37046586 5.74348389,4.24314385 L4.89805929,3.62890693 Z" id="Polygon" stroke="url(#linearGradient-2)" fill="#653219" transform="translate(4.604167, 4.922347) rotate(-15.000000) translate(-4.604167, -4.922347) "></path>
                    <path d="M10.2924736,2.53533556 C10.1172299,2.40801356 9.87993209,2.40801356 9.70468838,2.53533556 L9.39423308,2.76089454 C9.21898938,2.88821655 9.14566031,3.11390021 9.21259745,3.31991154 L9.33118082,3.68487363 C9.39811796,3.89088496 9.59009595,4.03036514 9.80670908,4.03036514 L10.1904529,4.03036514 C10.4070661,4.03036514 10.5990441,3.89088496 10.6659812,3.68487363 L10.7845646,3.31991154 C10.8515017,3.11390021 10.7781726,2.88821655 10.6029289,2.76089454 L10.2924736,2.53533556 Z" id="Polygon" stroke="url(#linearGradient-2)" fill="#653219" transform="translate(9.998581, 3.266276) rotate(-15.000000) translate(-9.998581, -3.266276) "></path>
                    <path d="M10.0244888,11.328231 C9.84924508,11.200909 9.61194724,11.200909 9.43670353,11.328231 L8.9107773,11.7103388 C8.7355336,11.8376608 8.66220453,12.0633444 8.72914167,12.2693558 L8.93002762,12.8876191 C8.99696475,13.0936305 9.18894274,13.2331106 9.40555587,13.2331106 L10.0556364,13.2331106 C10.2722496,13.2331106 10.4642276,13.0936305 10.5311647,12.8876191 L10.7320506,12.2693558 C10.7989878,12.0633444 10.7256587,11.8376608 10.550415,11.7103388 L10.0244888,11.328231 Z" id="Polygon" stroke="url(#linearGradient-2)" fill="#653219" transform="translate(9.730596, 12.114891) rotate(-15.000000) translate(-9.730596, -12.114891) "></path>
                    <path d="M4.22256472,9.70514925 C4.09653627,9.61358421 3.92588088,9.61358421 3.79985243,9.70514925 C3.67382397,9.79671428 3.62108856,9.95901719 3.66922714,10.1071725 C3.71736573,10.2553279 3.85542883,10.3556366 4.01120857,10.3556366 C4.16698831,10.3556366 4.30505142,10.2553279 4.35319001,10.1071725 C4.40132859,9.95901719 4.34859318,9.79671428 4.22256472,9.70514925 Z" id="Polygon" stroke="url(#linearGradient-2)" fill="#653219" transform="translate(4.011209, 9.996056) rotate(-15.000000) translate(-4.011209, -9.996056) "></path>
                    <path d="M8.28053168,7.01137932 C8.10528797,6.88405731 7.86799013,6.88405731 7.69274642,7.01137932 L7.52098686,7.13616994 C7.34574316,7.26349194 7.27241409,7.48917561 7.33935123,7.69518693 L7.40495755,7.89710241 C7.47189468,8.10311374 7.66387267,8.24259391 7.8804858,8.24259391 L8.0927923,8.24259391 C8.30940543,8.24259391 8.50138342,8.10311374 8.56832055,7.89710241 L8.63392687,7.69518693 C8.70086401,7.48917561 8.62753494,7.26349194 8.45229124,7.13616994 L8.28053168,7.01137932 Z" id="Polygon" stroke="url(#linearGradient-2)" fill="#653219" transform="translate(7.986639, 7.596487) rotate(-15.000000) translate(-7.986639, -7.596487) "></path>
                    <path d="M13.3980593,5.75390693 C13.2228156,5.62658493 12.9855177,5.62658493 12.810274,5.75390693 L11.9648494,6.36814385 C11.7896057,6.49546586 11.7162767,6.72114952 11.7832138,6.92716085 L12.1061373,7.92101706 C12.1730744,8.12702839 12.3650524,8.26650857 12.5816655,8.26650857 L13.6266678,8.26650857 C13.8432809,8.26650857 14.0352589,8.12702839 14.1021961,7.92101706 L14.4251195,6.92716085 C14.4920567,6.72114952 14.4187276,6.49546586 14.2434839,6.36814385 L13.3980593,5.75390693 Z" id="Polygon" stroke="url(#linearGradient-2)" fill="#653219" transform="translate(13.104167, 7.047347) rotate(-15.000000) translate(-13.104167, -7.047347) "></path>
                    <circle id="Oval-3" fill="#D9A077" cx="3.89583333" cy="3.89583333" r="1.0625"></circle>
                    <circle id="Oval-3" fill="#D9A077" cx="9.625" cy="2.83333333" r="1"></circle>
                    <circle id="Oval-3" fill="#D9A077" cx="12.3958333" cy="6.02083333" r="1.0625"></circle>
                    <circle id="Oval-3" fill="#D9A077" cx="7.79166667" cy="7.08333333" r="1"></circle>
                    <circle id="Oval-3" fill="#D9A077" cx="4.95833333" cy="9.91666667" r="1"></circle>
                    <circle id="Oval-3" fill="#D9A077" cx="8.85416667" cy="11.6875" r="1.0625"></circle>
                </g>
                <g id="iconCookie" transform="translate(7.000000, 6.000000)">
                    <path d="M9.48606395,0.810643057 C8.84227739,0.621610267 8.15772261,0.621610267 7.51393605,0.810643057 L5.17234956,1.49819489 C4.528563,1.68722768 3.95267887,2.05732593 3.51329,2.56440773 L1.91514067,4.40877037 C1.47575179,4.91585216 1.19137746,5.53854509 1.09588913,6.202681 L0.748578092,8.61828235 C0.653089764,9.28241826 0.750512066,9.96000526 1.02924116,10.5703368 L2.0430372,12.7902405 C2.32176629,13.4005721 2.77005434,13.9179241 3.33450632,14.2806753 L5.38753638,15.6000776 C5.95198837,15.9628289 6.60881387,16.1556903 7.27977924,16.1556903 L9.72022076,16.1556903 C10.3911861,16.1556903 11.0480116,15.9628289 11.6124636,15.6000776 L13.6654937,14.2806753 C14.2299457,13.9179241 14.6782337,13.4005721 14.9569628,12.7902405 L15.9707588,10.5703368 C16.2494879,9.96000526 16.3469102,9.28241826 16.2514219,8.61828235 L15.9041109,6.202681 C15.8086225,5.53854509 15.5242482,4.91585216 15.0848593,4.40877037 L13.48671,2.56440773 C13.0473211,2.05732593 12.471437,1.68722768 11.8276504,1.49819489 L9.48606395,0.810643057 Z" id="Polygon-2" stroke="#9C6D3E" fill="#BF8F4D"></path>
                    <path d="M9.48606395,0.810643057 C8.84227739,0.621610267 8.15772261,0.621610267 7.51393605,0.810643057 L5.55530347,1.38574947 C4.91151691,1.57478226 4.33563278,1.94488052 3.89624391,2.45196231 L2.55946333,3.99468934 C2.12007446,4.50177113 1.83570012,5.12446406 1.7402118,5.78859997 L1.44970161,7.80914267 C1.35421329,8.47327858 1.45163559,9.15086558 1.73036468,9.76119715 L2.57835982,11.6180475 C2.85708891,12.2283791 3.30537695,12.7457311 3.86982894,13.1084823 L5.58709694,14.2121035 C6.15154893,14.5748547 6.80837443,14.7677161 7.4793398,14.7677161 L9.5206602,14.7677161 C10.1916256,14.7677161 10.8484511,14.5748547 11.4129031,14.2121035 L13.1301711,13.1084823 C13.694623,12.7457311 14.1429111,12.2283791 14.4216402,11.6180475 L15.2696353,9.76119715 C15.5483644,9.15086558 15.6457867,8.47327858 15.5502984,7.80914267 L15.2597882,5.78859997 C15.1642999,5.12446406 14.8799255,4.50177113 14.4405367,3.99468934 L13.1037561,2.45196231 C12.6643672,1.94488052 12.0884831,1.57478226 11.4446965,1.38574947 L9.48606395,0.810643057 Z" id="Polygon-2" stroke="#F2CE85" fill="url(#linearGradient-1)"></path>
                    <path d="M9.89805929,2.62890693 C9.72281559,2.50158493 9.48551774,2.50158493 9.31027404,2.62890693 L8.46484945,3.24314385 C8.28960574,3.37046586 8.21627668,3.59614952 8.28321382,3.80216085 L8.60613728,4.79601706 C8.67307441,5.00202839 8.8650524,5.14150857 9.08166553,5.14150857 L10.1266678,5.14150857 C10.3432809,5.14150857 10.5352589,5.00202839 10.6021961,4.79601706 L10.9251195,3.80216085 C10.9920567,3.59614952 10.9187276,3.37046586 10.7434839,3.24314385 L9.89805929,2.62890693 Z" id="Polygon" stroke="url(#linearGradient-2)" fill="#653219" transform="translate(9.604167, 3.922347) rotate(-15.000000) translate(-9.604167, -3.922347) "></path>
                    <path d="M5.29247364,4.53533556 C5.11722993,4.40801356 4.87993209,4.40801356 4.70468838,4.53533556 L4.39423308,4.76089454 C4.21898938,4.88821655 4.14566031,5.11390021 4.21259745,5.31991154 L4.33118082,5.68487363 C4.39811796,5.89088496 4.59009595,6.03036514 4.80670908,6.03036514 L5.19045294,6.03036514 C5.40706607,6.03036514 5.59904406,5.89088496 5.6659812,5.68487363 L5.78456457,5.31991154 C5.85150171,5.11390021 5.77817264,4.88821655 5.60292894,4.76089454 L5.29247364,4.53533556 Z" id="Polygon" stroke="url(#linearGradient-2)" fill="#653219" transform="translate(4.998581, 5.266276) rotate(-15.000000) translate(-4.998581, -5.266276) "></path>
                    <path d="M10.0244888,11.328231 C9.84924508,11.200909 9.61194724,11.200909 9.43670353,11.328231 L8.9107773,11.7103388 C8.7355336,11.8376608 8.66220453,12.0633444 8.72914167,12.2693558 L8.93002762,12.8876191 C8.99696475,13.0936305 9.18894274,13.2331106 9.40555587,13.2331106 L10.0556364,13.2331106 C10.2722496,13.2331106 10.4642276,13.0936305 10.5311647,12.8876191 L10.7320506,12.2693558 C10.7989878,12.0633444 10.7256587,11.8376608 10.550415,11.7103388 L10.0244888,11.328231 Z" id="Polygon" stroke="url(#linearGradient-2)" fill="#653219" transform="translate(9.730596, 12.114891) rotate(-15.000000) translate(-9.730596, -12.114891) "></path>
                    <path d="M13.7856869,6.90035354 C13.6104432,6.77303154 13.3731453,6.77303154 13.1979016,6.90035354 L12.8280053,7.16909896 C12.6527616,7.29642096 12.5794325,7.52210462 12.6463696,7.72811595 L12.7876575,8.16295517 C12.8545946,8.3689665 13.0465726,8.50844668 13.2631857,8.50844668 L13.7204027,8.50844668 C13.9370159,8.50844668 14.1289939,8.3689665 14.195931,8.16295517 L14.3372188,7.72811595 C14.404156,7.52210462 14.3308269,7.29642096 14.1555832,7.16909896 L13.7856869,6.90035354 Z" id="Polygon" stroke="url(#linearGradient-2)" fill="#653219" transform="translate(13.491794, 7.693794) rotate(-15.000000) translate(-13.491794, -7.693794) "></path>
                    <circle id="Oval-3" fill="#D9A077" cx="8.89583333" cy="2.89583333" r="1.0625"></circle>
                    <path d="M4.89805929,8.62890693 C4.72281559,8.50158493 4.48551774,8.50158493 4.31027404,8.62890693 L3.46484945,9.24314385 C3.28960574,9.37046586 3.21627668,9.59614952 3.28321382,9.80216085 L3.60613728,10.7960171 C3.67307441,11.0020284 3.8650524,11.1415086 4.08166553,11.1415086 L5.1266678,11.1415086 C5.34328093,11.1415086 5.53525892,11.0020284 5.60219606,10.7960171 L5.92511952,9.80216085 C5.99205666,9.59614952 5.91872759,9.37046586 5.74348389,9.24314385 L4.89805929,8.62890693 Z" id="Polygon" stroke="url(#linearGradient-2)" fill="#653219" transform="translate(4.604167, 9.922347) rotate(-15.000000) translate(-4.604167, -9.922347) "></path>
                    <circle id="Oval-3" fill="#D9A077" cx="3.89583333" cy="8.89583333" r="1.0625"></circle>
                    <circle id="Oval-3" fill="#D9A077" cx="4.625" cy="4.83333333" r="1"></circle>
                    <path d="M8.59756472,7.62181591 C8.47153627,7.53025088 8.30088088,7.53025088 8.17485243,7.62181591 C8.04882397,7.71338095 7.99608856,7.87568386 8.04422714,8.0238392 C8.09236573,8.17199453 8.23042883,8.27230325 8.38620857,8.27230325 C8.54198831,8.27230325 8.68005142,8.17199453 8.72819001,8.0238392 C8.77632859,7.87568386 8.72359318,7.71338095 8.59756472,7.62181591 Z" id="Polygon" stroke="url(#linearGradient-2)" fill="#653219" transform="translate(8.386209, 7.912723) rotate(-15.000000) translate(-8.386209, -7.912723) "></path>
                    <circle id="Oval-3" fill="#D9A077" cx="8.625" cy="7.83333333" r="1"></circle>
                    <circle id="Oval-3" fill="#D9A077" cx="12.8958333" cy="6.52083333" r="1"></circle>
                    <circle id="Oval-3" fill="#D9A077" cx="8.85416667" cy="11.6875" r="1.0625"></circle>
                </g>
            </g>
        </g>
    </g>
</svg>