<?xml version="1.0" encoding="UTF-8"?>
<svg width="218px" height="128px" viewBox="0 0 218 128" version="1.1" xmlns="http://www.w3.org/2000/svg" xmlns:xlink="http://www.w3.org/1999/xlink">
    <!-- Generator: Sketch 49.3 (51167) - http://www.bohemiancoding.com/sketch -->
    <title>Group 8</title>
    <desc>Created with Sketch.</desc>
    <defs>
        <rect id="path-1" x="0" y="0" width="17.1180308" height="17.1375978"></rect>
        <rect id="path-3" x="0" y="0" width="4.50474496" height="2.70593649"></rect>
        <path d="M5.22550415,15.3336401 L4.54350924,15.3336401 L7.40701966,12.1480042 L5.40569395,9.92176714 L1.1160944,14.6934369 C0.979868328,14.4794579 0.900948992,14.2254337 0.900948992,13.9529768 L0.900948992,4.08659979 C0.900948992,3.32408051 1.519093,2.70593649 2.28161229,2.70593649 L14.8364186,2.70593649 C15.5989378,2.70593649 16.2170819,3.32408051 16.2170819,4.08659979 L16.2170819,13.128803 L11.7123369,8.11780948 L5.22550415,15.3336401 Z M5.40569395,8.11780948 C6.40085473,8.11780948 7.20759193,7.31015012 7.20759193,6.31385182 C7.20759193,5.31755351 6.40085473,4.50989416 5.40569395,4.50989416 C4.41053317,4.50989416 3.60379597,5.31755351 3.60379597,6.31385182 C3.60379597,7.31015012 4.41053317,8.11780948 5.40569395,8.11780948 Z" id="path-5"></path>
        <path d="M17.1180308,14.241771 L17.1180308,14.8549557 C17.1180308,15.6174749 16.4998868,16.235619 15.7373675,16.235619 L5.31559905,16.235619 L12.1628114,9.01978831 L17.1180308,14.241771 Z" id="path-7"></path>
        <path d="M13.6493906,8.48609724 L10.4673143,9.39354912 C10.3085122,9.43883569 10.1430656,9.34681313 10.097779,9.18801099 C10.0861579,9.14726022 10.0833314,9.10450471 10.089487,9.06257877 L11.3509113,0.470955504 C11.374899,0.307573802 11.5267919,0.194572671 11.6901736,0.218560413 C11.7505439,0.227423994 11.8067573,0.254545528 11.8512665,0.296283612 L18.5826266,6.60855638 C18.703083,6.72151326 18.7091625,6.91073208 18.5962056,7.03118844 C18.5591854,7.07066658 18.5121442,7.0993565 18.4600987,7.11419863 L15.7715073,7.88092042 C19.8089724,20.1841012 14.3686799,34.0786184 2.32533174,40.4821802 C1.78755146,40.768123 1.1241105,40.5720905 0.843494887,40.0443293 C0.562879277,39.5165681 0.771352437,38.8569306 1.30913272,38.5709878 C12.4195971,32.6634491 17.4215595,19.8269827 13.6493906,8.48609724 Z" id="path-9"></path>
        <rect id="path-10" x="0" y="0" width="17.1180308" height="17.1375978"></rect>
        <path d="M13.722513,66.4923242 L11.0734707,67.2576874 C10.9148262,67.3035231 10.7490622,67.2120734 10.7032265,67.0534289 C10.6915258,67.0129309 10.6885207,66.9704165 10.6944083,66.9286753 L11.9035538,58.356255 C11.9266177,58.1927403 12.0778694,58.0788824 12.2413841,58.1019463 C12.3034838,58.1107055 12.3612573,58.1387694 12.4065308,58.1821676 L18.9981749,64.5007782 C19.1173846,64.61505 19.1213875,64.8043242 19.0071156,64.9235338 C18.9706777,64.9615463 18.9248474,64.989262 18.8742603,65.0038776 L15.7976091,65.8927859 C20.0222168,78.2301679 14.8122109,92.1408931 2.96165427,98.4419458 C2.43581033,98.721542 1.78206662,98.5204038 1.50147681,97.9926912 C1.22088701,97.4649785 1.41970476,96.8105254 1.94554869,96.5309292 C12.878605,90.71772 17.6679762,77.865186 13.722513,66.4923242 Z" id="path-12"></path>
        <circle id="path-13" cx="65" cy="65" r="65"></circle>
        <path d="M55.2351525,15.791652 L55.2351525,0 L41.511484,0 L41.511484,15.8150989 C41.511484,19.2342878 39.5022543,22.334268 36.3811507,23.7305362 L17.8479287,32.0216254 C13.7322362,33.8628364 10.6484221,37.4388705 9.4322817,41.7805275 L-0.00701309926,75.4790875 C-0.771973446,78.2100184 -0.245219654,81.1408515 1.42280127,83.4345067 L22.5911824,112.542636 L26.0828447,102.291013 L11.6506404,78.6812165 L22.5135899,51.0329019 L74.3453774,51.0329019 L87.2570457,76.8172852 L70.7761225,103.688962 L77.4490772,110.523377 L97.8501068,81.9959222 C98.977712,80.4191534 99.300461,78.4047822 98.7219247,76.55465 L87.7573067,41.4903083 C86.4530533,37.319366 83.4139627,33.9131788 79.4180834,32.1437765 L60.3956171,23.7205003 C57.258291,22.3312711 55.2351525,19.2227994 55.2351525,15.791652 Z" id="path-15"></path>
        <linearGradient x1="43.7567427%" y1="64.210239%" x2="50%" y2="87.5430809%" id="linearGradient-17">
            <stop stop-color="#AEB8BE" offset="0%"></stop>
            <stop stop-color="#3C8F7D" offset="100%"></stop>
        </linearGradient>
        <path d="M14.3047542,0.487320172 L16.2559341,-1.305e-13 C14.6299509,12.5620311 20.158294,18.8430467 32.8409634,18.8430467 C45.5236328,18.8430467 51.0519759,12.7244712 49.4259926,0.487320172 L51.3771725,0.974640344 L59.1420956,23.773729 C61.2669581,30.0126731 61.3031349,36.7737575 59.245158,43.0350829 C53.8115989,59.5665033 51.6185018,70.6715064 52.6658667,76.3500923 C54.519211,86.3985241 59.4614624,89.9541231 63.1058396,103.403563 C43.4471341,85.3679157 22.4118543,88.099028 -8.94e-14,111.596899 C-8.93618361e-14,103.04285 2.88298,92.530644 8.64893999,80.0602825 C13.4146073,69.7533094 12.9991901,57.3298043 7.40268828,42.7897672 L7.40268936,42.7897668 C4.85723575,36.1765303 4.70608971,28.8810671 6.97545307,22.1680781 L14.3047542,0.487320172 Z" id="path-18"></path>
    </defs>
    <g id="Homepage-/-Content" stroke="none" stroke-width="1" fill="none" fill-rule="evenodd">
        <g id="Public-Maps" transform="translate(-498.000000, -883.000000)">
            <g id="graphic" transform="translate(468.000000, 823.000000)">
                <g id="Group-8" transform="translate(41.000000, 58.000000)">
                    <g id="map" transform="translate(-10.000000, 3.000000)">
                        <path d="M109.915777,55.0207087 L133.067004,19.5122008 C135.13342,16.3428061 138.660941,14.4316613 142.444477,14.4316613 L157.666074,14.4316613" id="Path-3" stroke="#FFFFFF" stroke-width="2.79864181"></path>
                        <path d="M58.5616845,55.0207087 L81.5798887,19.5342517 C83.6439313,16.3521807 87.1788337,14.4316613 90.9717018,14.4316613 L104.510083,14.4316613" id="Path-3" stroke="#FFFFFF" stroke-width="2.79864181" transform="translate(81.535884, 34.726185) scale(-1, 1) translate(-81.535884, -34.726185) "></path>
                        <path d="M115.321471,71.2563277 L133.20809,97.0998791 C135.298947,100.120862 138.739055,101.923608 142.413021,101.923608 L160.368921,101.923608" id="Path-3" stroke="#FFFFFF" stroke-width="2.79864181"></path>
                        <path d="M48.6512456,72.1583065 L83.8352793,100.365269 C85.8216775,101.957761 88.2915693,102.825587 90.8375084,102.825587 L102.708185,102.825587" id="Path-3" stroke="#FFFFFF" stroke-width="2.79864181" transform="translate(75.679715, 87.491947) scale(-1, 1) translate(-75.679715, -87.491947) "></path>
                        <g id="Group-3" transform="translate(9.009490, 0.000000)">
                            <path d="M13.8066329,0 L37.5474596,0 C45.1726524,-1.4007252e-15 51.3540925,6.18144012 51.3540925,13.8066329 L51.3540925,15.0566897 C51.3540925,22.6818825 45.1726524,28.8633226 37.5474596,28.8633226 L13.8066329,28.8633226 C6.18144012,28.8633226 9.33816798e-16,22.6818825 0,15.0566897 L0,13.8066329 C-9.33816798e-16,6.18144012 6.18144012,1.4007252e-15 13.8066329,0 Z" id="Rectangle-3" stroke="#FFFFFF" stroke-width="1.32888986" fill="#5959FF"></path>
                            <g id="Group-36" transform="translate(16.217082, 5.411873)">
                                <g id="Group-4">
                                    <mask id="mask-2" fill="white">
                                        <use xlink:href="#path-1"></use>
                                    </mask>
                                    <g id="Mask"></g>
                                    <g id="Group-2" opacity="0.5" mask="url(#mask-2)">
                                        <g transform="translate(6.306643, -0.901979)">
                                            <mask id="mask-4" fill="white">
                                                <use xlink:href="#path-3"></use>
                                            </mask>
                                            <g id="Mask" stroke="none" fill="none"></g>
                                            <polyline id="Rectangle-2" stroke="#FFFFFF" stroke-width="0.690331647" fill="none" mask="url(#mask-4)" points="0 3.60791532 2.25237248 1.80395766 2.25237248 1.80395766 4.50474496 3.60791532"></polyline>
                                        </g>
                                    </g>
                                    <mask id="mask-6" fill="white">
                                        <use xlink:href="#path-5"></use>
                                    </mask>
                                    <use id="Combined-Shape" fill="#FFFFFF" xlink:href="#path-5"></use>
                                    <g id="Group-3" mask="url(#mask-6)">
                                        <g transform="translate(-3.603796, 9.019788)"></g>
                                    </g>
                                </g>
                                <path d="M4.54350924,15.3336401 L2.28161229,15.3336401 C1.79154984,15.3336401 1.3611214,15.0783166 1.1160944,14.6934369 L5.40569395,9.92176714 L7.40701966,12.1480042 L4.54350924,15.3336401 Z" id="Combined-Shape" fill="#FFFFFF" opacity="0.200000003"></path>
                                <mask id="mask-8" fill="white">
                                    <use xlink:href="#path-7"></use>
                                </mask>
                                <use id="Combined-Shape" fill="#FFFFFF" opacity="0.5" xlink:href="#path-7"></use>
                            </g>
                        </g>
                        <g id="Group-3" transform="translate(154.062278, 0.000000)">
                            <path d="M13.8066329,0 L37.5474596,0 C45.1726524,-1.4007252e-15 51.3540925,6.18144012 51.3540925,13.8066329 L51.3540925,15.0566897 C51.3540925,22.6818825 45.1726524,28.8633226 37.5474596,28.8633226 L13.8066329,28.8633226 C6.18144012,28.8633226 9.33816798e-16,22.6818825 0,15.0566897 L0,13.8066329 C-9.33816798e-16,6.18144012 6.18144012,1.4007252e-15 13.8066329,0 Z" id="Rectangle-3" stroke="#FFFFFF" stroke-width="1.32888986" fill="#50E3C2"></path>
                            <g id="Group-37" transform="translate(18.018980, 6.313852)" fill="#FFFFFF">
                                <path d="M4.099992,14.3327764 C3.79628205,14.3974263 3.47929437,14.4316613 3.15332147,14.4316613 C1.9733038,14.4316613 0.91103133,13.9830361 0.170128354,13.2669918 C0.748387234,13.0584963 1.26030415,12.7347084 1.6698775,12.3276662 C0.622477842,11.0360475 0,9.42016745 0,7.66682006 C0,3.43255226 3.63031743,0 8.10854093,0 C12.5867644,0 16.2170819,3.43255226 16.2170819,7.66682006 C16.2170819,11.9010879 12.5867644,15.3336401 8.10854093,15.3336401 C6.6504567,15.3336401 5.28226041,14.9697495 4.099992,14.3327764 Z M5.19507661,4.50989416 C4.81381696,4.50989416 4.50474496,4.81896616 4.50474496,5.2002258 L4.50474496,5.62352017 C4.50474496,6.00477981 4.81381696,6.31385182 5.19507661,6.31385182 L11.0220052,6.31385182 C11.4032649,6.31385182 11.7123369,6.00477981 11.7123369,5.62352017 L11.7123369,5.2002258 C11.7123369,4.81896616 11.4032649,4.50989416 11.0220052,4.50989416 L5.19507661,4.50989416 Z M5.19507661,7.21583065 C4.81381696,7.21583065 4.50474496,7.52490265 4.50474496,7.9061623 L4.50474496,8.32945666 C4.50474496,8.71071631 4.81381696,9.01978831 5.19507661,9.01978831 L11.0220052,9.01978831 C11.4032649,9.01978831 11.7123369,8.71071631 11.7123369,8.32945666 L11.7123369,7.9061623 C11.7123369,7.52490265 11.4032649,7.21583065 11.0220052,7.21583065 L5.19507661,7.21583065 Z M5.19507661,9.01978831 C4.81381696,9.01978831 4.50474496,9.32886032 4.50474496,9.71011996 L4.50474496,10.1334143 C4.50474496,10.514674 4.81381696,10.823746 5.19507661,10.823746 L11.0220052,10.823746 C11.4032649,10.823746 11.7123369,10.514674 11.7123369,10.1334143 L11.7123369,9.71011996 C11.7123369,9.32886032 11.4032649,9.01978831 11.0220052,9.01978831 L5.19507661,9.01978831 Z" id="Combined-Shape"></path>
                                <rect id="Rectangle-6" opacity="0.5" x="3.60379597" y="4.50989416" width="9.91043891" height="8.11780948"></rect>
                            </g>
                        </g>
                        <g id="Group-3" transform="translate(153.161329, 87.491947)">
                            <path d="M13.8066329,0 L37.5474596,-1.77635684e-15 C45.1726524,-3.17708204e-15 51.3540925,6.18144012 51.3540925,13.8066329 L51.3540925,15.0566897 C51.3540925,22.6818825 45.1726524,28.8633226 37.5474596,28.8633226 L13.8066329,28.8633226 C6.18144012,28.8633226 -8.42540042e-16,22.6818825 -1.77635684e-15,15.0566897 L-1.77635684e-15,13.8066329 C-2.71017364e-15,6.18144012 6.18144012,-3.75631643e-16 13.8066329,-1.77635684e-15 Z" id="Rectangle-3" fill="#FFFFFF"></path>
                            <rect id="Rectangle-10" fill="#829199" opacity="0.100000001" x="11.7123369" y="11.7257248" width="27.9294187" height="5.41187299" rx="2.70593649"></rect>
                        </g>
                        <g id="Group-3" transform="translate(164.873665, 50.510815)">
                            <path d="M7.21583065,6.36e-14 L44.1382619,6.53763568e-14 C48.1234551,6.46442887e-14 51.3540925,3.23063742 51.3540925,7.21583065 L51.3540925,7.21583065 C51.3540925,11.2010239 48.1234551,14.4316613 44.1382619,14.4316613 L7.21583065,14.4316613 C3.23063742,14.4316613 -2.11911955e-13,11.2010239 -2.124e-13,7.21583065 L-2.124e-13,7.21583065 C-2.12888045e-13,3.23063742 3.23063742,6.43320681e-14 7.21583065,6.36e-14 Z" id="Rectangle-3" stroke="#FFFFFF" stroke-width="1.32888986" fill="#FFD91A"></path>
                            <rect id="Rectangle-10" fill="#FFFFFF" x="6.30664294" y="5.41187299" width="38.7408066" height="4.50989416" rx="2.25494708"></rect>
                        </g>
                        <g id="Group-3" transform="translate(13.514235, 51.412793)">
                            <path d="M7.21583065,0 L33.326874,1.77635684e-15 C37.3120672,1.04428872e-15 40.5427046,3.23063742 40.5427046,7.21583065 L40.5427046,7.21583065 C40.5427046,11.2010239 37.3120672,14.4316613 33.326874,14.4316613 L7.21583065,14.4316613 C3.23063742,14.4316613 4.88045413e-16,11.2010239 0,7.21583065 L0,7.21583065 C1.2817359e-15,3.23063742 3.23063742,2.50842496e-15 7.21583065,1.77635684e-15 Z" id="Rectangle-3" fill="#FFFFFF"></path>
                            <rect id="Rectangle-10" fill="#829199" opacity="0.100000001" x="7.20759193" y="5.41187299" width="26.1275208" height="4.50989416" rx="2.25494708"></rect>
                        </g>
                        <g id="Group-6" transform="translate(192.931791, 63.138518)" fill-rule="nonzero">
                            <g id="Combined-Shape">
                                <use fill="#8AE62E" fill-rule="evenodd" xlink:href="#path-9"></use>
                                <path stroke="#FFFFFF" stroke-width="1.32888986" d="M13.2115592,9.30189125 L10.6495334,10.0325196 C10.1378376,10.178443 9.60473191,9.88192585 9.45880853,9.37023006 C9.42136263,9.23892202 9.41225512,9.10115426 9.43208976,8.96605954 L10.693514,0.374436281 C10.7708079,-0.15201588 11.2602407,-0.516130644 11.7866929,-0.438836806 C11.9812193,-0.41027638 12.1623514,-0.322884767 12.3057699,-0.188395383 L19.03713,6.12387738 C19.4252672,6.48784956 19.4448568,7.09755466 19.0808846,7.48569184 C18.9615971,7.61289915 18.8100199,7.70534447 18.6423177,7.75316911 L16.6099011,8.33276562 C20.3871141,20.9082959 14.6255104,34.6945896 2.63726974,41.0688502 C1.77792436,41.5257723 0.711045763,41.2105326 0.256824836,40.3562673 C-0.197396091,39.502002 0.137849344,38.4412398 0.997194723,37.9843177 C11.5112477,32.3938966 16.5466323,20.3007168 13.2115592,9.30189125 Z"></path>
                            </g>
                        </g>
                        <g id="Group-3" transform="translate(0.000000, 87.491947)">
                            <path d="M13.8066329,0 L37.5474596,-1.77635684e-15 C45.1726524,-3.17708204e-15 51.3540925,6.18144012 51.3540925,13.8066329 L51.3540925,15.0566897 C51.3540925,22.6818825 45.1726524,28.8633226 37.5474596,28.8633226 L13.8066329,28.8633226 C6.18144012,28.8633226 -8.42540042e-16,22.6818825 -1.77635684e-15,15.0566897 L-1.77635684e-15,13.8066329 C-2.71017364e-15,6.18144012 6.18144012,-3.75631643e-16 13.8066329,-1.77635684e-15 Z" id="Rectangle-3" stroke="#FFFFFF" stroke-width="1.32888986" fill="#FFAA00"></path>
                            <g id="Group-35" transform="translate(17.118031, 5.411873)">
                                <g id="Group-2">
                                    <mask id="mask-11" fill="white">
                                        <use xlink:href="#path-10"></use>
                                    </mask>
                                    <g id="Mask"></g>
                                    <g id="Group-3" mask="url(#mask-11)" fill="#FFFFFF">
                                        <g transform="translate(-3.475089, -0.000000)" id="Combined-Shape">
                                            <path d="M16.0021372,11.0847752 C16.2075266,10.9457427 16.6223781,10.4739115 16.9418228,10.3295543 C17.2612676,10.1851972 17.4839067,10.3685957 17.4839067,10.5898883 C17.4839067,10.6535923 17.4588091,10.7966635 17.4061172,11.0229878 C17.3764231,11.1505314 17.2415261,11.6942644 17.2140538,11.8087176 C17.1386576,12.1228285 17.0812476,12.3866022 17.0351631,12.6412887 C16.9086853,13.3402688 16.8822381,13.8970723 16.9907903,14.3400858 C17.1428881,14.9608133 17.572354,15.3336404 18.2423755,15.3336401 C18.9566752,15.3336399 19.3940775,14.9408728 19.5189796,14.2850283 C19.605479,13.830831 19.5521593,13.2772316 19.3904945,12.51526 C19.3567727,12.3563198 19.3197627,12.1941525 19.2698702,11.9837609 C19.033335,10.9863176 18.9992274,10.8216337 19.0008343,10.5925182 C19.0038365,10.1644551 19.1075819,9.70174918 19.2796239,9.2407652 C19.3854386,8.95723636 19.4904871,8.73973632 19.5569696,8.62233031 C19.8159681,8.08225063 19.691034,7.37150237 19.2832326,6.97084196 L15.0524692,2.81250417 L12.7436175,4.12443998 L14.1140758,1.89990787 L12.1881496,0 L8.88078292,4.07952533 C8.88078292,4.07952533 16.0021372,11.0847752 16.0021372,11.0847752 Z" fill-rule="nonzero" opacity="0.600000024"></path>
                                            <path d="M2.80882507,6.59033069 L3.16928378,8.41769927 C3.22254436,8.68770717 3.41772683,8.90776487 3.67944532,8.99287885 L5.57242785,9.60849941 C6.19553342,9.81114079 6.61842775,10.3905551 6.62144631,11.0457764 L6.64129483,15.354181 C6.64417603,15.9795868 7.15140849,16.485359 7.77682003,16.4864371 L7.77682003,16.4864371 C8.40160434,16.4875141 8.9094683,15.9828565 8.91234833,15.3580779 L8.93217954,11.0559951 C8.93520531,10.3996015 9.35958495,9.81943325 9.98423002,9.61773977 L11.8660041,9.01012818 C12.1320928,8.92421003 12.3294356,8.69901119 12.3796783,8.42394616 L12.719264,6.56480517 L2.80882507,6.59033069 Z" fill-rule="evenodd" transform="translate(7.764045, 11.525655) rotate(-315.000000) translate(-7.764045, -11.525655) "></path>
                                        </g>
                                    </g>
                                </g>
                            </g>
                        </g>
                        <g id="Combined-Shape" fill-rule="nonzero" transform="translate(10.224378, 78.341183) rotate(-180.000000) translate(-10.224378, -78.341183) ">
                            <use fill="#8AE62E" fill-rule="evenodd" xlink:href="#path-12"></use>
                            <path stroke="#FFFFFF" stroke-width="1.32888986" d="M13.2935286,67.3078881 L11.2578993,67.8960236 C10.7467114,68.0437164 10.2125831,67.7490454 10.0648903,67.2378575 C10.027188,67.107364 10.0175048,66.970373 10.036476,66.8358735 L11.2456215,58.2634532 C11.3199384,57.7365725 11.8073053,57.3696971 12.3341859,57.444014 C12.534285,57.4722381 12.7204438,57.5626663 12.8663252,57.7025051 L19.4579693,64.0211156 C19.8420893,64.3893249 19.8549875,64.9992082 19.4867782,65.3833282 C19.369367,65.5058128 19.2216918,65.595119 19.0586889,65.6422139 L16.6438184,66.33992 C20.6093229,78.9414188 15.084701,92.748538 3.27359227,99.0286159 C2.4232726,99.4807389 1.36742793,99.1558858 0.914806761,98.3046292 C0.462185587,97.4533726 0.783291029,96.3963821 1.63361069,95.9442591 C11.9789103,90.4435658 16.801961,78.3348964 13.2935286,67.3078881 Z"></path>
                        </g>
                    </g>
                    <g id="Group-9" transform="translate(32.000000, 0.000000)">
                        <mask id="mask-14" fill="white">
                            <use xlink:href="#path-13"></use>
                        </mask>
                        <g id="Mask" opacity="0.300000012"></g>
                        <g id="user" mask="url(#mask-14)">
                            <g transform="translate(16.000000, 27.000000)">
                                <ellipse id="Combined-Shape" stroke="#000000" stroke-width="0.975533853" fill="#1E2326" fill-rule="evenodd" cx="48.0857143" cy="42.5581395" rx="31.1142857" ry="31.2093023"></ellipse>
                                <path d="M29.2429679,34.0465116 L67.8713178,34.0465116 C70.4828969,34.0465116 72.6,36.1636147 72.6,38.7751938 L72.6,38.7751938 C72.6,41.3867728 70.4828969,43.503876 67.8713178,43.503876 L29.2429679,43.503876 C26.6313888,43.503876 24.5142857,41.3867728 24.5142857,38.7751938 L24.5142857,38.7751938 C24.5142857,36.1636147 26.6313888,34.0465116 29.2429679,34.0465116 Z" id="Rectangle" stroke="#BFA399" stroke-width="0.975533853" fill="#FFF0E0" fill-rule="evenodd"></path>
                                <g id="Group-12" stroke="none" stroke-width="1" fill="none" fill-rule="evenodd" transform="translate(0.000000, 52.961240)">
                                    <mask id="mask-16" fill="white">
                                        <use xlink:href="#path-15"></use>
                                    </mask>
                                    <use id="Combined-Shape" stroke="#BFA399" stroke-width="0.975533853" fill="#FFF0E0" xlink:href="#path-15"></use>
                                    <path d="M29.6487552,46.9565188 L46.7873082,49.4207188 C47.8377173,49.5717477 48.9043295,49.5717477 49.9547386,49.4207188 L67.68576,46.871333 C72.6402465,46.1589715 77.4606539,48.8421943 79.465701,53.428498 L87.8411822,72.5864016 C89.125676,75.5245263 88.8011111,78.9177545 86.982936,81.5591065 L73.6603685,100.913453 L24.1545596,102.139535 L11.3354059,82.3991412 C9.75560302,79.9663807 9.40515482,76.9345422 10.3883119,74.2055308 L17.5956811,54.1995805 C19.3856604,49.2310218 24.4213565,46.2049177 29.6487552,46.9565188 Z" id="Rectangle-3" fill="#CC4400" opacity="0.100000001" style="mix-blend-mode: multiply;" mask="url(#mask-16)"></path>
                                    <path d="M49.0285603,-48.2325581 L49.0285603,-48.2325581 C62.0304502,-48.2325581 72.5705646,-37.6924438 72.5705646,-24.6905538 C72.5705646,-24.4008615 72.5652174,-24.1111938 72.5545259,-23.8216989 L72.4789615,-21.7756432 L68.9705472,1.44590715 C68.121034,7.06867858 64.2807982,11.7845204 58.9466515,13.7553351 L56.5417475,14.6438784 C51.6931344,16.4353024 46.3639862,16.4353024 41.5153731,14.6438784 L39.110469,13.7553351 C33.7763224,11.7845204 29.9360865,7.06867858 29.0865734,1.44590715 L25.5781591,-21.7756432 L25.5025947,-23.8216989 C25.0227393,-36.8147309 35.1666733,-47.7366641 48.1597053,-48.2165194 C48.4492003,-48.227211 48.7388679,-48.2325581 49.0285603,-48.2325581 Z" id="Rectangle" fill="#CC4400" opacity="0.119999997" style="mix-blend-mode: multiply;" mask="url(#mask-16)"></path>
                                </g>
                                <g id="Group" stroke="none" stroke-width="1" fill="none" fill-rule="evenodd" transform="translate(15.085714, 77.550388)">
                                    <mask id="mask-19" fill="white">
                                        <use xlink:href="#path-18"></use>
                                    </mask>
                                    <use id="Mask" stroke="url(#linearGradient-17)" stroke-width="0.975533853" fill="#FFFFFF" stroke-linecap="round" stroke-linejoin="round" xlink:href="#path-18"></use>
                                    <path d="M49.9649642,-1.89147287 L53.4495797,32.1261562 C53.6943197,34.515363 53.4401469,36.92936 52.7031654,39.2152001 C44.6178741,64.2927378 41.3834573,82.8457477 42.9999152,94.8742297 C44.1163929,103.182229 50.5303747,104.364975 62.2418608,98.422467 L66,22.3160181 L49.9649642,-1.89147287 Z" id="Mask" fill="#B4BDC2" opacity="0.200000003" style="mix-blend-mode: multiply;" mask="url(#mask-19)"></path>
                                </g>
                                <path d="M49.0292145,0.947018094 L49.0292145,0.947018094 C62.0452614,0.947018094 72.5968522,11.4986089 72.5968522,24.5146558 C72.5968522,24.8065382 72.5914298,25.0983954 72.5805878,25.3900763 L72.5107554,27.2687723 L69.1001815,46.9789787 C68.1493351,52.4740594 65.1174027,57.3913457 60.6346285,60.7086873 L58.3239911,62.4186047 C52.8013403,66.5054755 45.2570887,66.5054755 39.7344379,62.4186047 L37.4238006,60.7086873 C32.9410263,57.3913457 29.9090939,52.4740594 28.9582475,46.9789787 L25.5476736,27.2687723 L25.4778412,25.3900763 C24.9943598,12.383012 35.1467296,1.44676391 48.1537939,0.963282468 C48.4454749,0.952440487 48.7373321,0.947018094 49.0292145,0.947018094 Z" id="Rectangle" stroke="#BFA399" stroke-width="0.975533853" fill="#FFF0E0" fill-rule="evenodd"></path>
                                <path d="M46.2,46.3410853 C46.6271914,46.8063834 47.1428571,47.2868217 48.0857143,47.2868217 C49.0285714,47.2868217 49.5442371,46.8063834 49.9714286,46.3410853" id="Oval-15" stroke="#71432C" stroke-width="0.975533853" fill="none" opacity="0.200000003"></path>
                                <path d="M70.9105792,37.7834857 L68.9705472,50.6242017 C68.121034,56.2469732 64.2807982,60.962815 58.9466515,62.9336297 L49.7047471,66.3482492 C49.2683719,66.5094773 48.7887486,66.5094773 48.3523734,66.3482492 L47.7879594,66.1397143 L55.0538934,63.1568755 C60.2068718,61.0414553 63.8419635,56.3402351 64.5924833,50.8207324 L66.5085296,36.7296671 C62.262217,34.9880973 58.849348,31.31009 57.1224539,26.6505106 C50.6499006,32.8804331 41.7244675,36.7311828 31.8685714,36.7311828 C29.3477858,36.7311828 26.8878668,36.4792847 24.5142857,36.0001093 L24.5142857,28.1069007 C24.5142857,14.6731513 35.4867285,3.78294574 49.0285714,3.78294574 C53.7850333,3.78294574 58.2251015,5.12774438 61.9840196,7.45470673 C58.3648032,3.70013703 53.3776028,1.27326175 47.8248199,0.976482352 C47.936234,0.97080981 48.0478641,0.965905624 48.1597053,0.961775132 C48.4492003,0.951083578 48.7388679,0.945736434 49.0285603,0.945736434 C60.486677,0.945736434 70.0329079,9.13149323 72.1383069,19.974061 C73.0478135,22.5173663 73.5428571,25.2550168 73.5428571,28.1069007 L73.5428571,37.7555824 C73.0584126,37.8044783 72.5678108,37.8294574 72.072,37.8294574 C71.6814737,37.8294574 71.2941789,37.8139605 70.9105792,37.7834857 Z" id="Combined-Shape" stroke="none" fill="#CC4400" fill-rule="evenodd" opacity="0.119999997" style="mix-blend-mode: multiply;"></path>
                                <path d="M73.5428571,33.9234702 C72.9243633,34.0047285 72.2951056,34.0465116 71.6571429,34.0465116 C65.1178266,34.0465116 59.4931473,29.6564101 57.0002643,23.3617759 C50.5498424,29.3898835 41.7532911,33.1007752 32.0571429,33.1007752 C29.4696297,33.1007752 26.9461805,32.836507 24.5142857,32.3344563 L24.5142857,24.3883463 C24.5142857,10.9190346 35.4333203,2.47427243e-15 48.902632,0 L49.1545108,0 C62.6238226,-2.47427243e-15 73.5428571,10.9190346 73.5428571,24.3883463 L73.5428571,33.9234702 Z" id="Combined-Shape" stroke="#000000" stroke-width="0.975533853" fill="#1E2326" fill-rule="evenodd"></path>
                                <ellipse id="Oval-13" stroke="none" fill="#FE4D6B" fill-rule="evenodd" opacity="0.100000001" cx="36.7714286" cy="48.2325581" rx="2.82857143" ry="2.8372093"></ellipse>
                                <ellipse id="Oval-13" stroke="none" fill="#FE4D6B" fill-rule="evenodd" opacity="0.100000001" cx="60.3428571" cy="48.2325581" rx="2.82857143" ry="2.8372093"></ellipse>
                                <path d="M41.4857143,53.9069767 C43.3624758,56.2932171 45.6358799,57.6899225 48.0857143,57.6899225 C50.5355487,57.6899225 52.8089528,56.2932171 54.6857143,53.9069767 L41.4857143,53.9069767 Z" id="Oval-2" stroke="#D47F8D" stroke-width="0.975533853" fill="#FFFFFF" fill-rule="evenodd" stroke-linecap="round" stroke-linejoin="round"></path>
                                <g id="Group-18" stroke="none" stroke-width="1" fill="none" fill-rule="evenodd" transform="translate(32.057143, 35.937984)">
                                    <g id="Group-19">
                                        <ellipse id="Oval" fill="#1E2326" cx="4.71428571" cy="2.8372093" rx="2.82857143" ry="2.8372093"></ellipse>
                                        <polygon id="Rectangle-26" fill="#1E2326" points="2.82857143 1.26098191 0 0 2.82857143 3.78294574"></polygon>
                                        <ellipse id="Oval" fill="#FFFFFF" cx="3.77142857" cy="1.89147287" rx="1" ry="1"></ellipse>
                                    </g>
                                    <g id="Group-20" transform="translate(25.457143, 0.000000)">
                                        <ellipse id="Oval" fill="#1E2326" cx="2.82857143" cy="2.8372093" rx="2.82857143" ry="2.8372093"></ellipse>
                                        <polygon id="Rectangle-26" fill="#1E2326" points="4.71428571 1.26098191 7.54285714 0 4.71428571 3.78294574"></polygon>
                                        <ellipse id="Oval" fill="#FFFFFF" cx="1.88571429" cy="1.89147287" rx="1" ry="1"></ellipse>
                                    </g>
                                </g>
                            </g>
                        </g>
                    </g>
                </g>
            </g>
        </g>
    </g>
</svg>