<?xml version="1.0" encoding="UTF-8"?>
<svg width="163px" height="159px" viewBox="0 0 163 159" version="1.1" xmlns="http://www.w3.org/2000/svg" xmlns:xlink="http://www.w3.org/1999/xlink">
    <!-- Generator: Sketch 49.3 (51167) - http://www.bohemiancoding.com/sketch -->
    <title>Group 10</title>
    <desc>Created with Sketch.</desc>
    <defs>
        <radialGradient cx="50%" cy="0%" fx="50%" fy="0%" r="100%" id="radialGradient-1">
            <stop stop-color="#77858C" offset="2.81010842%"></stop>
            <stop stop-color="#576166" offset="99.7189892%"></stop>
        </radialGradient>
        <radialGradient cx="50%" cy="27.0984184%" fx="50%" fy="27.0984184%" r="72.9015816%" gradientTransform="translate(0.500000,0.270984),scale(0.444444,1.000000),rotate(90.000000),scale(1.000000,2.168286),translate(-0.500000,-0.270984)" id="radialGradient-2">
            <stop stop-color="#FFFFFF" offset="0%"></stop>
            <stop stop-color="#FFFFFF" offset="46.4900459%"></stop>
            <stop stop-color="#C7D2D7" offset="73.3203733%"></stop>
            <stop stop-color="#E6EEF2" offset="100%"></stop>
        </radialGradient>
        <radialGradient cx="50%" cy="27.0984184%" fx="50%" fy="27.0984184%" r="72.9015816%" gradientTransform="translate(0.500000,0.270984),scale(0.931818,1.000000),rotate(90.000000),translate(-0.500000,-0.270984)" id="radialGradient-3">
            <stop stop-color="#FFFFFF" offset="0%"></stop>
            <stop stop-color="#FFFFFF" offset="18.6708737%"></stop>
            <stop stop-color="#C7D2D7" offset="74.953442%"></stop>
            <stop stop-color="#E6EEF2" offset="100%"></stop>
        </radialGradient>
        <rect id="path-4" x="4.37500007" y="11.3750002" width="38.5000006" height="35.8750005" rx="17.9375003"></rect>
        <radialGradient cx="50%" cy="27.0984184%" fx="50%" fy="27.0984184%" r="72.9015816%" id="radialGradient-6">
            <stop stop-color="#FFFFFF" offset="0%"></stop>
            <stop stop-color="#FFFFFF" offset="18.6708737%"></stop>
            <stop stop-color="#C7D2D7" offset="74.953442%"></stop>
            <stop stop-color="#E6EEF2" offset="100%"></stop>
        </radialGradient>
        <radialGradient cx="50%" cy="27.0984184%" fx="50%" fy="27.0984184%" r="61.1447218%" gradientTransform="translate(0.500000,0.270984),scale(0.315789,1.000000),rotate(90.000000),scale(1.000000,2.484368),translate(-0.500000,-0.270984)" id="radialGradient-7">
            <stop stop-color="#FFFFFF" offset="0%"></stop>
            <stop stop-color="#DCE2E6" offset="100%"></stop>
        </radialGradient>
        <radialGradient cx="50%" cy="27.0984184%" fx="50%" fy="27.0984184%" r="72.9015816%" gradientTransform="translate(0.500000,0.270984),scale(0.550000,1.000000),rotate(90.000000),scale(1.000000,2.168286),translate(-0.500000,-0.270984)" id="radialGradient-8">
            <stop stop-color="#FFFFFF" offset="0%"></stop>
            <stop stop-color="#FFFFFF" offset="46.4900459%"></stop>
            <stop stop-color="#C7D2D7" offset="73.3203733%"></stop>
            <stop stop-color="#E6EEF2" offset="100%"></stop>
        </radialGradient>
    </defs>
    <g id="Homepage-/-Content" stroke="none" stroke-width="1" fill="none" fill-rule="evenodd">
        <g id="Public-Maps" transform="translate(-217.000000, -873.000000)">
            <g id="Group" transform="translate(160.000000, 823.000000)">
                <g id="graphic">
                    <g id="Group-10" transform="translate(57.000000, 50.000000)">
                        <g id="Robby-Robot/Front" transform="translate(26.000000, 47.000000)">
                            <g id="Shadow" opacity="0.300000012" transform="translate(42.875001, 103.250002)" fill="#000000">
                                <ellipse id="Oval" opacity="0.75999999" cx="13.1250002" cy="4.37500007" rx="13.1250002" ry="4.37500007"></ellipse>
                                <ellipse id="Oval" cx="13.1250002" cy="4.37500007" rx="7.0000001" ry="2.62500004"></ellipse>
                            </g>
                            <g id="Wheels" transform="translate(46.375001, 85.750001)">
                                <circle id="Oval" stroke="#3D474D" stroke-width="0.875000013" fill="url(#radialGradient-1)" cx="9.62500014" cy="13.1250002" r="9.62500014"></circle>
                                <circle id="Oval" fill="#3D474D" opacity="0.400000006" cx="9.62500014" cy="9.62500014" r="9.62500014"></circle>
                            </g>
                            <g id="Body" transform="translate(32.375000, 56.000001)">
                                <rect id="Mask" stroke="#6C7980" stroke-width="0.875000013" fill="#A1ADB3" x="21.0000003" y="0" width="5.25000008" height="35.8750005" rx="2.62500004"></rect>
                                <rect id="Mask" fill="#3D474D" opacity="0.200000003" x="21.0000003" y="0" width="5.25000008" height="8.75000013"></rect>
                                <rect id="Mask" stroke="#A1ADB3" stroke-width="0.875000013" fill="url(#radialGradient-2)" x="0" y="13.1250002" width="47.2500007" height="21.0000003" rx="10.5000002"></rect>
                                <mask id="mask-5" fill="white">
                                    <use xlink:href="#path-4"></use>
                                </mask>
                                <use id="Mask" stroke="#A1ADB3" stroke-width="0.875000013" fill="url(#radialGradient-3)" xlink:href="#path-4"></use>
                                <rect id="Mask" fill="#FFFFFF" opacity="0.669999957" mask="url(#mask-5)" x="15.7500002" y="12.2500002" width="15.7500002" height="15.7500002" rx="7.87500012"></rect>
                                <circle id="Oval" stroke="#269926" stroke-width="0.875000013" fill="#3DCC3D" mask="url(#mask-5)" cx="31.5000005" cy="19.2500003" r="1.75000003"></circle>
                            </g>
                            <g id="Arm-Left" transform="translate(24.500000, 87.937501) rotate(-345.000000) translate(-24.500000, -87.937501) translate(15.750000, 73.500001)">
                                <circle id="Oval" stroke="#3D474D" stroke-width="0.875000013" fill="url(#radialGradient-1)" cx="11.8125002" cy="3.93750006" r="3.93750006"></circle>
                                <circle id="Oval" fill="#3D474D" opacity="0.200000003" cx="11.3750002" cy="7.0000001" r="3.50000005"></circle>
                                <circle id="Oval" stroke="#A1ADB3" stroke-width="0.875000013" fill="url(#radialGradient-6)" cx="10.0625001" cy="11.8125002" r="6.5625001"></circle>
                                <circle id="Oval" fill="#3D474D" opacity="0.100000001" cx="9.62500014" cy="15.7500002" r="5.25000008"></circle>
                                <circle id="Oval" fill="#FFFFFF" cx="8.14538999" cy="8.70717458" r="1.75000003"></circle>
                                <circle id="Oval" stroke="#3D474D" stroke-width="0.875000013" fill="#576166" cx="15.3125002" cy="19.6875003" r="2.18750003"></circle>
                                <circle id="Oval" stroke="#3D474D" stroke-width="0.875000013" fill="url(#radialGradient-1)" cx="9.62500014" cy="18.3750003" r="6.12500009"></circle>
                                <rect id="Rectangle" stroke="#3D474D" stroke-width="0.875000013" fill="#576166" transform="translate(2.979607, 21.806489) rotate(-345.000000) translate(-2.979607, -21.806489) " x="1.22960747" y="19.1814893" width="3.50000005" height="5.25000008" rx="1.75000003"></rect>
                                <rect id="Rectangle" stroke="#3D474D" stroke-width="0.875000013" fill="#576166" transform="translate(5.687500, 24.062500) rotate(-345.000000) translate(-5.687500, -24.062500) " x="3.50000005" y="20.1250003" width="4.37500007" height="7.87500012" rx="2.18750003"></rect>
                                <rect id="Rectangle" stroke="#3D474D" stroke-width="0.875000013" fill="#576166" x="8.75000013" y="21.0000003" width="4.37500007" height="7.87500012" rx="2.18750003"></rect>
                            </g>
                            <g id="Arm-Right" transform="translate(87.500001, 87.937501) scale(-1, 1) rotate(-345.000000) translate(-87.500001, -87.937501) translate(78.750001, 73.500001)">
                                <circle id="Oval" stroke="#3D474D" stroke-width="0.875000013" fill="url(#radialGradient-1)" cx="11.8125002" cy="3.93750006" r="3.93750006"></circle>
                                <circle id="Oval" fill="#3D474D" opacity="0.200000003" cx="11.3750002" cy="7.0000001" r="3.50000005"></circle>
                                <circle id="Oval" stroke="#A1ADB3" stroke-width="0.875000013" fill="url(#radialGradient-6)" cx="10.0625001" cy="11.8125002" r="6.5625001"></circle>
                                <circle id="Oval" fill="#3D474D" opacity="0.100000001" cx="9.62500014" cy="15.7500002" r="5.25000008"></circle>
                                <circle id="Oval" fill="#FFFFFF" cx="8.14538999" cy="8.70717458" r="1.75000003"></circle>
                                <circle id="Oval" stroke="#3D474D" stroke-width="0.875000013" fill="#576166" cx="15.3125002" cy="19.6875003" r="2.18750003"></circle>
                                <circle id="Oval" stroke="#3D474D" stroke-width="0.875000013" fill="url(#radialGradient-1)" cx="9.62500014" cy="18.3750003" r="6.12500009"></circle>
                                <rect id="Rectangle" stroke="#3D474D" stroke-width="0.875000013" fill="#576166" transform="translate(2.979607, 21.806489) rotate(-345.000000) translate(-2.979607, -21.806489) " x="1.22960747" y="19.1814893" width="3.50000005" height="5.25000008" rx="1.75000003"></rect>
                                <rect id="Rectangle" stroke="#3D474D" stroke-width="0.875000013" fill="#576166" transform="translate(5.687500, 24.062500) rotate(-345.000000) translate(-5.687500, -24.062500) " x="3.50000005" y="20.1250003" width="4.37500007" height="7.87500012" rx="2.18750003"></rect>
                                <rect id="Rectangle" stroke="#3D474D" stroke-width="0.875000013" fill="#576166" x="8.75000013" y="21.0000003" width="4.37500007" height="7.87500012" rx="2.18750003"></rect>
                            </g>
                            <g id="Head" transform="translate(18.375000, 23.625000)">
                                <rect id="Rectangle" stroke="#A1ADB3" stroke-width="0.875000013" fill="#DCE2E6" x="0" y="8.75000013" width="66.500001" height="21.0000003" rx="10.5000002"></rect>
                                <rect id="Rectangle" stroke="#A1ADB3" stroke-width="0.875000013" fill="url(#radialGradient-7)" x="8.75000013" y="8.75000013" width="66.500001" height="21.0000003" rx="10.5000002"></rect>
                                <rect id="Rectangle" stroke="#A1ADB3" stroke-width="0.875000013" fill="url(#radialGradient-8)" x="2.62500004" y="-2.27373675e-13" width="70.000001" height="38.5000006" rx="19.2500003"></rect>
                                <path d="M48.1314387,-2.27373675e-13 L53.3814388,-2.27373675e-13 C64.0093648,-2.27373675e-13 72.6250011,8.61618112 72.6250011,19.2500003 C72.6250011,29.8814819 64.0065513,38.5000006 53.3814388,38.5000006 L48.1314387,38.5000006 C58.7565512,38.5000006 67.375001,29.8814819 67.375001,19.2500003 C67.375001,8.61618112 58.7593647,-2.27373675e-13 48.1314387,-2.27373675e-13 Z" id="Combined-Shape" fill="#3D474D" opacity="0.100000001"></path>
                                <rect id="Rectangle" stroke="#6C7980" stroke-width="0.875000013" fill="#A1ADB3" x="7.0000001" y="4.37500007" width="61.2500009" height="29.7500004" rx="14.8750002"></rect>
                                <path d="M67.0953615,13.4915089 C64.5151254,9.08409654 59.7325151,6.12500009 54.2590016,6.12500009 L22.7409996,6.12500009 C14.5318009,6.12500009 7.87500012,12.7847645 7.87500012,21.0000003 C7.87500012,23.0418437 8.28596986,24.9874188 9.02963967,26.7584917 C7.73952421,24.55479 7.0000001,21.9890107 7.0000001,19.2500003 C7.0000001,11.0347645 13.6568009,4.37500007 21.8659996,4.37500007 L53.3840016,4.37500007 C59.554107,4.37500007 64.8462621,8.13520838 67.0953615,13.4915089 Z" id="Combined-Shape" fill="#3D474D" opacity="0.100000001"></path>
                                <path d="M35.0000005,28.8750004 C35.8708463,29.4269408 36.9257403,29.7500004 38.0625006,29.7500004 C39.1992609,29.7500004 40.2541548,29.4269408 41.1250006,28.8750004" id="Mouth" stroke="#3D474D" stroke-width="1.31250002" stroke-linecap="round" stroke-linejoin="round"></path>
                                <g id="Eye" transform="translate(12.250000, 9.625000)">
                                    <circle id="Oval" stroke="#A1ADB3" stroke-width="0.875000013" fill="#FFFFFF" cx="9.62500014" cy="9.62500014" r="9.62500014"></circle>
                                    <circle id="Oval" fill="#3D474D" cx="9.62500014" cy="9.62500014" r="6.12500009"></circle>
                                    <circle id="Oval" fill="#FFFFFF" opacity="0.100000001" cx="13.1250002" cy="7.0000001" r="3.50000005"></circle>
                                    <circle id="Oval" fill="#FFFFFF" cx="12.6875002" cy="5.68750008" r="2.18750003"></circle>
                                </g>
                                <g id="Eye" transform="translate(43.750001, 9.625000)">
                                    <circle id="Oval" stroke="#A1ADB3" stroke-width="0.875000013" fill="#FFFFFF" cx="9.62500014" cy="9.62500014" r="9.62500014"></circle>
                                    <circle id="Oval" fill="#3D474D" cx="9.62500014" cy="9.62500014" r="6.12500009"></circle>
                                    <circle id="Oval" fill="#FFFFFF" opacity="0.100000001" cx="13.1250002" cy="7.0000001" r="3.50000005"></circle>
                                    <circle id="Oval" fill="#FFFFFF" cx="12.6875002" cy="5.68750008" r="2.18750003"></circle>
                                </g>
                            </g>
                            <g id="Antenna" transform="translate(41.125001, -0.000000)">
                                <circle id="Oval" fill="#F7578C" opacity="0.100000001" cx="14.8750002" cy="14.8750002" r="14.8750002"></circle>
                                <circle id="Oval" fill="#F7578C" opacity="0.200000003" cx="14.8750002" cy="14.8750002" r="10.5000002"></circle>
                                <rect id="Rectangle" stroke="#6C7980" stroke-width="0.875000013" fill="#A1ADB3" x="13.1250002" y="12.2500002" width="3.50000005" height="13.1250002" rx="1.75000003"></rect>
                                <circle id="Oval" stroke="#B53661" stroke-width="0.875000013" fill="#F7578C" cx="14.8750002" cy="14.8750002" r="6.12500009"></circle>
                                <circle id="Oval" fill="#FFFFFF" cx="13.1250002" cy="13.1250002" r="1.75000003"></circle>
                            </g>
                        </g>
                        <g id="Group-7">
                            <path d="M129.443976,44 C125.618109,52.0209231 120.283727,56.540647 113.440828,57.5591716 C115.6328,51.8191623 115.727782,47.2994384 113.725775,44 L22,44 C9.8497355,44 1.48797825e-15,34.1502645 0,22 C-1.48797825e-15,9.8497355 9.8497355,5.78468106e-15 22,3.55271368e-15 L141,1.0658141e-14 C153.150264,8.42617366e-15 163,9.8497355 163,22 C163,34.1502645 153.150264,44 141,44 L129.443976,44 Z" id="Comment-Bubble" fill="#FFFFFF"></path>
                            <text id="What-about-you?" font-family="Avenir-Heavy, Avenir" font-size="16" font-weight="600" line-spacing="26" fill="#3D474D">
                                <tspan x="18" y="25">What about you?</tspan>
                            </text>
                        </g>
                    </g>
                </g>
            </g>
        </g>
    </g>
</svg>